<?xml version="1.0" encoding="UTF-8"?>
<svg version="1.1" xmlns="http://www.w3.org/2000/svg" width="403" height="331">
<path d="M0 0 C2.12423025 1.63778728 4.12215971 3.28841274 6.125 5.0625 C7.29728202 6.07785724 8.47046583 7.09217421 9.64453125 8.10546875 C10.50618896 8.85256104 10.50618896 8.85256104 11.38525391 9.61474609 C13.48841687 11.41900171 15.64125816 13.15348907 17.8125 14.875 C22.10825015 18.28245287 26.37154634 21.72752896 30.625 25.1875 C31.30796143 25.7429248 31.99092285 26.29834961 32.69458008 26.87060547 C34.09757779 28.01177787 35.50049041 29.1530549 36.90332031 30.29443359 C40.26762714 33.03116479 43.63388328 35.7654955 47 38.5 C48.3333433 39.58332107 49.66667662 40.66665442 51 41.75 C51.66 42.28625 52.32 42.8225 53 43.375 C91 74.25 91 74.25 93.00195312 75.87670898 C94.32861659 76.954542 95.65543824 78.03218033 96.98242188 79.10961914 C100.41916049 81.90049082 103.852669 84.69520442 107.28125 87.49609375 C107.98765625 88.07230469 108.6940625 88.64851563 109.421875 89.2421875 C110.75624953 90.33075619 112.08966705 91.42049964 113.421875 92.51171875 C117.86004474 96.12938652 122.39673176 99.59518448 127 103 C127.27440918 102.41855225 127.54881836 101.83710449 127.83154297 101.23803711 C128.97291512 99.05187779 130.2305454 97.17254979 131.6953125 95.19140625 C132.23833008 94.45494873 132.78134766 93.71849121 133.34082031 92.9597168 C134.22398926 91.77309448 134.22398926 91.77309448 135.125 90.5625 C135.73956055 89.73210205 136.35412109 88.9017041 136.98730469 88.04614258 C142.36125994 80.80724383 147.8355074 73.64618363 153.31689453 66.48852539 C156.96289082 61.71527096 160.54599521 56.91383843 164 52 C168.75477598 45.23561998 173.78072665 38.68705679 178.80957031 32.125 C184.11858293 25.18688612 189.32861634 18.18151299 194.48339844 11.12817383 C195.0199707 10.39493896 195.55654297 9.6617041 196.109375 8.90625 C196.57311523 8.27009766 197.03685547 7.63394531 197.51464844 6.97851562 C198.00481445 6.32560547 198.49498047 5.67269531 199 5 C199.54567627 4.08307373 200.09135254 3.16614746 200.65356445 2.22143555 C203 -0 203 -0 206.71655273 -0.1472168 C208.29279887 0.05737229 209.86517647 0.29295222 211.43359375 0.55078125 C212.33043381 0.6752211 213.22727386 0.79966095 214.15129089 0.9278717 C217.25086481 1.36415046 220.34342019 1.83892525 223.4375 2.3125 C225.67262106 2.63441562 227.90815474 2.95347626 230.14404297 3.27001953 C234.00295366 3.8185759 237.8613329 4.37011735 241.71795654 4.93450928 C255.09670702 6.89123442 268.49076529 8.7316661 281.88671875 10.56640625 C286.48970899 11.19783833 291.09263633 11.82972831 295.69555664 12.46166992 C296.84321975 12.61922162 297.99088285 12.77677332 299.17332363 12.93909931 C310.559571 14.50260144 321.94550594 16.06826244 333.32930946 17.64947319 C335.41685086 17.93897559 337.50453582 18.22744486 339.59236717 18.51484871 C342.47162559 18.91135132 345.35036803 19.31140866 348.22900391 19.71240234 C349.0794802 19.82873174 349.92995649 19.94506113 350.8062048 20.06491566 C353.9879767 20.51130138 356.94457837 20.98152612 360 22 C360.32439528 27.61875663 360.55855241 33.23194222 360.71411133 38.85791016 C360.77900576 40.76545211 360.86737012 42.67235957 360.98071289 44.57763672 C361.94799035 61.2708323 361.94799035 61.2708323 357.15380859 66.90039062 C354.0284929 69.98921517 350.5967938 72.48781003 347 75 C346.52202469 75.533974 346.04404938 76.067948 345.55158997 76.61810303 C343.16629424 78.74252572 340.70890594 78.30312233 337.65673828 78.19921875 C332.72290624 77.82924936 327.83601001 77.18610046 322.9375 76.5 C321.88111328 76.35691406 320.82472656 76.21382813 319.73632812 76.06640625 C317.15677765 75.71624103 314.57809875 75.36067163 312 75 C312.01843586 76.19269123 312.03687172 77.38538246 312.05586624 78.61421585 C312.49019217 107.00581615 312.81938665 135.39733032 313.02130659 163.79152693 C313.04631699 167.29575683 313.0722038 170.79997974 313.09863281 174.30419922 C313.10387902 175.00174748 313.10912523 175.69929574 313.11453041 176.41798183 C313.20126638 187.67348999 313.35878491 198.92692919 313.54305592 210.18121496 C313.73092022 221.75255307 313.8398519 233.32269436 313.8817699 244.89548564 C313.90773362 251.38716829 313.96823969 257.87417992 314.11460114 264.36435699 C315.10109716 309.78001927 315.10109716 309.78001927 304.70780563 320.76147079 C300.74887766 324.36172123 296.69460722 327.4271959 292 330 C289.04197659 328.24589537 286.25353528 326.52165941 283.609375 324.3203125 C282.9913501 323.81056885 282.3733252 323.3008252 281.73657227 322.77563477 C281.08100342 322.23092529 280.42543457 321.68621582 279.75 321.125 C274.10703087 316.48325538 268.39242539 311.9668819 262.5625 307.5625 C255.95979505 302.56405608 249.53612918 297.38363939 243.16650391 292.09228516 C238.25367164 288.01548631 233.27583758 284.03798528 228.23974609 280.11499023 C223.75640485 276.61506265 219.34126349 273.03686574 214.9375 269.4375 C210.17831289 265.55012105 205.38625395 261.72659912 200.5 258 C194.91244712 253.73854125 189.45563574 249.33451114 184.01391602 244.88891602 C179.12557329 240.90033295 174.18930377 236.97971852 169.21899414 233.09399414 C164.95558563 229.75854304 160.72230397 226.38730218 156.5 223 C145.10394101 213.86460827 133.59600145 204.87999447 122 196 C121.68482422 196.98419922 121.68482422 196.98419922 121.36328125 197.98828125 C119.48956268 202.12764232 116.88341022 205.54568394 114.1875 209.1875 C113.00510001 210.8046083 111.82281144 212.42179808 110.640625 214.0390625 C110.03541016 214.8630957 109.43019531 215.68712891 108.80664062 216.53613281 C105.99892042 220.36525609 103.21712063 224.21295272 100.4375 228.0625 C99.9002832 228.80580566 99.36306641 229.54911133 98.80957031 230.31494141 C93.14360784 238.16576177 87.56813593 246.07964823 82 254 C75.70958064 262.94775824 69.39480269 271.87640955 63 280.75 C62.45996338 281.50079834 61.91992676 282.25159668 61.36352539 283.02514648 C60.59576782 284.0877771 60.59576782 284.0877771 59.8125 285.171875 C59.36519531 285.7915918 58.91789062 286.41130859 58.45703125 287.04980469 C57.97621094 287.69336914 57.49539062 288.33693359 57 289 C56.49936035 289.92248535 55.9987207 290.8449707 55.48291016 291.79541016 C53 294 53 294 50.90716553 294.19091797 C48.05746752 293.96920202 45.28198848 293.56279707 42.4609375 293.1015625 C40.18980362 292.77879555 37.91864323 292.45621518 35.64746094 292.13378906 C34.41781616 291.94933228 33.18817139 291.76487549 31.92126465 291.5748291 C27.82754243 290.97471896 23.72991037 290.42972885 19.62597656 289.90527344 C18.54836626 289.76740103 18.54836626 289.76740103 17.44898605 289.62674332 C15.97431207 289.43813016 14.49963014 289.24957915 13.02494049 289.06108856 C9.27452452 288.57858856 5.52593665 288.08237249 1.77734375 287.5859375 C0.26025549 287.38507921 -1.25683436 287.18423291 -2.77392578 286.98339844 C-3.52963867 286.8833551 -4.28535156 286.78331177 -5.06396484 286.68023682 C-8.19256512 286.26701766 -11.32159684 285.85711362 -14.45061302 285.44705772 C-17.48083094 285.04931057 -20.51069135 284.64889213 -23.54045486 284.24769974 C-24.97804879 284.05776611 -26.41576903 283.86878592 -27.85361862 283.68079758 C-29.84076992 283.42070046 -31.82738227 283.15649567 -33.81396484 282.89208984 C-34.93991058 282.74347504 -36.06585632 282.59486023 -37.22592163 282.44174194 C-40 282 -40 282 -43 281 C-43 193.55 -43 106.1 -43 16 C-35.41736498 12.20868249 -27.88200692 8.6934274 -20.07519531 5.44091797 C-18.10278459 4.61570557 -16.13754978 3.77470385 -14.171875 2.93359375 C-12.90926433 2.40526872 -11.64625751 1.87788918 -10.3828125 1.3515625 C-9.25246582 0.87541504 -8.12211914 0.39926758 -6.95751953 -0.09130859 C-3.96203724 -1.01166398 -2.81684055 -1.2427919 0 0 Z M-18.8125 14.625 C-20.15945487 15.22051629 -21.50775504 15.8129996 -22.85742188 16.40234375 C-26.93844425 18.19581179 -31.01225619 20.0061281 -35 22 C-35 104.83 -35 187.66 -35 273 C-29.16898857 274.16620229 -23.57258948 275.27384287 -17.71777344 276.05322266 C-17.06270813 276.14129684 -16.40764282 276.22937103 -15.73272705 276.32011414 C-13.60870438 276.60475624 -11.48408823 276.88462569 -9.359375 277.1640625 C-7.86344092 277.36280996 -6.36753069 277.56173698 -4.87164307 277.76083374 C-1.75553447 278.17477851 1.36088301 278.58629193 4.47753906 278.99609375 C8.46137873 279.52015959 12.44431358 280.05078184 16.42703629 280.58326149 C19.50823626 280.99440016 22.58991452 281.40185831 25.6717453 281.80823898 C27.14063872 282.0024185 28.60937671 282.19777771 30.07794952 282.39436722 C32.12994032 282.66853826 34.18253224 282.93767907 36.23535156 283.20556641 C37.98214203 283.43634384 37.98214203 283.43634384 39.76422119 283.67178345 C45.69112747 284.59019125 45.69112747 284.59019125 50.87890625 282.48046875 C51.43449219 281.72378906 51.99007812 280.96710938 52.5625 280.1875 C53.57763672 278.82044922 53.57763672 278.82044922 54.61328125 277.42578125 C58.11082405 272.45099672 61.5292899 267.42004565 64.93530273 262.38232422 C68.52961612 257.08157785 72.24539717 251.90760615 76.125 246.8125 C80.52328747 241.03226243 84.70605039 235.14488788 88.7878418 229.13769531 C92.7758691 223.28337084 96.9077745 217.54115565 101.07373047 211.8125 C103.8645068 207.97050074 106.63151119 204.11514346 109.3515625 200.22265625 C109.89111572 199.45107178 110.43066895 198.6794873 110.98657227 197.88452148 C112.00873062 196.41897919 113.02765124 194.95117131 114.04272461 193.48071289 C116.46620175 190.00814808 118.86122542 186.88028726 122 184 C122.66249756 184.54974487 122.66249756 184.54974487 123.33837891 185.1105957 C133.1179423 193.21723922 142.97684232 201.19714376 153 209 C161.08271305 215.30456249 169.09653523 221.68248995 177.03857422 228.16357422 C181.88452542 232.11165074 186.78152094 235.98784811 191.70874023 239.83374023 C196.20663846 243.35375146 200.63985702 246.94856888 205.0625 250.5625 C209.82173946 254.44981773 214.61374347 258.27339891 219.5 262 C225.08755288 266.26145875 230.54436426 270.66548886 235.98608398 275.11108398 C240.87442671 279.09966705 245.81069623 283.02028148 250.78100586 286.90600586 C255.04441606 290.24145828 259.27759308 293.61282434 263.5 297 C268.50992734 301.01381288 273.52558477 305.02008197 278.5625 309 C279.12195313 309.44472656 279.68140625 309.88945312 280.2578125 310.34765625 C283.73600571 313.08830488 287.29054372 315.59024795 291 318 C291.77923828 317.20335937 291.77923828 317.20335937 292.57421875 316.390625 C293.62029297 315.33101563 293.62029297 315.33101563 294.6875 314.25 C295.37199219 313.55390625 296.05648438 312.8578125 296.76171875 312.140625 C299 310 299 310 301.60231304 308.46810532 C304.6973285 305.28219146 304.59479252 303.48458765 304.64540654 299.1759541 C304.63084234 298.24988693 304.61627813 297.32381976 304.60127258 296.36968994 C304.60554471 295.38213612 304.60981683 294.3945823 304.61421841 293.37710261 C304.6224729 290.05856166 304.59492168 286.74127662 304.56762695 283.42285156 C304.56621702 281.04790782 304.56700739 278.67296189 304.56983948 276.29801941 C304.57112778 270.51247124 304.54942125 264.72733637 304.51765118 258.9418827 C304.48191989 252.21018347 304.47442639 245.47854316 304.46871033 238.74676237 C304.45776674 226.74173208 304.42449095 214.73687165 304.37719727 202.73193359 C304.33130325 191.07015839 304.29591061 179.40842931 304.2746582 167.74658203 C304.27334459 167.02776699 304.27203097 166.30895195 304.27067754 165.56835464 C304.26415236 161.96227629 304.25783382 158.35619762 304.25161803 154.75011873 C304.19978306 124.83329348 304.11134453 94.91666659 304 65 C305.31605225 65.18175781 305.31605225 65.18175781 306.65869141 65.3671875 C309.93463426 65.81766754 313.21103014 66.26452381 316.48779297 66.70898438 C317.90205175 66.90155879 319.31611869 67.09554784 320.72998047 67.29101562 C322.77001122 67.57279577 324.81069282 67.84936988 326.8515625 68.125 C328.07697754 68.29257813 329.30239258 68.46015625 330.56494141 68.6328125 C337.19480633 69.34150595 340.8606049 69.30750553 346.375 65.25 C350.0487098 62.20677823 351.7544555 59.48100941 352.54199219 54.73095703 C353.05951219 46.46701426 352.62196265 38.24650978 352 30 C337.60290068 27.27359474 323.11717144 25.26023452 308.60368252 23.26302361 C305.906528 22.89145473 303.20966243 22.51781149 300.51279378 22.14417428 C294.15588912 21.26346331 287.79855749 20.38588736 281.44091797 19.51049805 C274.8980197 18.60955598 268.35579998 17.70380498 261.81389785 16.79566032 C256.1663083 16.01179996 250.51835793 15.23058078 244.87010026 14.45154923 C241.50924763 13.98799918 238.14852874 13.52353233 234.78813934 13.0566349 C231.05549095 12.53879785 227.32227173 12.02529243 223.58886719 11.51293945 C222.48341049 11.35869003 221.3779538 11.20444061 220.23899841 11.04551697 C219.22175186 10.90681183 218.20450531 10.76810669 217.15643311 10.62519836 C216.27607769 10.50373097 215.39572227 10.38226358 214.48868942 10.25711536 C211.9487324 9.99470336 209.549982 9.83626485 207 10 C204.8962704 11.74938495 204.8962704 11.74938495 203.0625 14.3125 C202.28648437 15.31539062 201.51046875 16.31828125 200.7109375 17.3515625 C199.80481402 18.56586342 198.90137886 19.78217299 198 21 C197.47696289 21.7022168 196.95392578 22.40443359 196.41503906 23.12792969 C193.44002522 27.12845437 190.48527386 31.14333681 187.54296875 35.16796875 C184.39519655 39.47074626 181.20801073 43.74202635 178 48 C173.70893947 53.69954392 169.46965592 59.43492914 165.25 65.1875 C159.56917955 72.92861523 153.77169966 80.57428188 147.92016602 88.18701172 C144.60497862 92.51680442 141.35053282 96.8744937 138.203125 101.328125 C137.60894775 102.16786865 137.01477051 103.0076123 136.40258789 103.87280273 C135.28333066 105.46493619 134.1727042 107.06318229 133.07202148 108.66821289 C132.57774658 109.37196045 132.08347168 110.07570801 131.57421875 110.80078125 C131.14713623 111.42122314 130.72005371 112.04166504 130.2800293 112.6809082 C129.85761963 113.1162085 129.43520996 113.55150879 129 114 C125.62357165 114 125.24080131 113.67825592 122.76953125 111.61328125 C121.8249707 110.83404297 121.8249707 110.83404297 120.86132812 110.0390625 C119.8471582 109.18441406 119.8471582 109.18441406 118.8125 108.3125 C117.36083596 107.11048519 115.90900855 105.90866764 114.45703125 104.70703125 C113.71533691 104.08908691 112.97364258 103.47114258 112.20947266 102.83447266 C108.82925199 100.02795574 105.41430937 97.26485064 102 94.5 C100.66647219 93.41690607 99.33313948 92.33357187 98 91.25 C97.34 90.71375 96.68 90.1775 96 89.625 C94 88 92 86.375 90 84.75 C89.33959717 84.21342773 88.67919434 83.67685547 87.9987793 83.12402344 C86.66949505 82.04396984 85.34023063 80.96389183 84.01098633 79.88378906 C80.61586671 77.12507227 77.22037148 74.36681991 73.82421875 71.609375 C67.16847008 66.20470691 60.51936373 60.79239361 53.88671875 55.359375 C48.29543846 50.78950586 42.686615 46.2411831 37.08056641 41.68945312 C34.3821697 39.49831194 31.68439208 37.30640968 28.98681641 35.11425781 C27.66511526 34.04039593 26.34317612 32.9668269 25.02099609 31.89355469 C21.56994837 29.09164675 18.12345826 26.28438005 14.68359375 23.46875 C13.97267578 22.88802734 13.26175781 22.30730469 12.52929688 21.70898438 C11.18151971 20.60785924 9.83506078 19.50511763 8.49023438 18.40039062 C7.26141022 17.39755712 6.01879279 16.41135086 4.76196289 15.44384766 C3 14 3 14 1.50170898 12.31787109 C-4.63480466 6.16677217 -12.16494555 11.53970551 -18.8125 14.625 Z " fill="#28D8FD" transform="translate(43,1)"/>
<path d="M0 0 C1.01473389 0.13913818 2.02946777 0.27827637 3.07495117 0.42163086 C4.76974609 0.63360107 4.76974609 0.63360107 6.4987793 0.84985352 C7.6930957 1.02693848 8.88741211 1.20402344 10.11791992 1.38647461 C11.33157227 1.5455127 12.54522461 1.70455078 13.7956543 1.8684082 C16.20622228 2.18696135 18.6153294 2.51679984 21.02270508 2.85864258 C23.78525695 3.25024037 26.54774932 3.61404476 29.31713867 3.95288086 C38.66293804 5.10981398 38.66293804 5.10981398 42.30541992 6.32397461 C42.30541992 60.11397461 42.30541992 113.90397461 42.30541992 169.32397461 C35.56358725 164.8294195 35.56358725 164.8294195 32.49291992 162.25756836 C31.81745117 161.69553711 31.14198242 161.13350586 30.44604492 160.55444336 C29.38643555 159.66692383 29.38643555 159.66692383 28.30541992 158.76147461 C23.02703096 154.37495137 17.72421704 150.03595847 12.30541992 145.82397461 C6.22711913 141.0930717 0.27818223 136.21515755 -5.65722656 131.30664062 C-10.09170083 127.64012818 -14.55276342 124.01295202 -19.05786133 120.43334961 C-21.84312315 118.20514015 -24.60883561 115.95411931 -27.37329102 113.70019531 C-33.77573093 108.48028997 -40.21555019 103.31705948 -46.7253418 98.23168945 C-52.11732247 94.01221835 -57.41709697 89.68597595 -62.69458008 85.32397461 C-59.83907035 80.14374402 -56.69813991 75.31908788 -53.25708008 70.51147461 C-52.73484863 69.77646729 -52.21261719 69.04145996 -51.67456055 68.28417969 C-47.38176486 62.25394556 -43.03807865 56.26057912 -38.69287109 50.26806641 C-34.6354555 44.65986987 -30.65278797 39.00252272 -26.69458008 33.32397461 C-22.03523658 26.64228331 -17.33555122 19.99261001 -12.56958008 13.38647461 C-12.03719727 12.64719727 -11.50481445 11.90791992 -10.95629883 11.14624023 C-10.45485352 10.45336914 -9.9534082 9.76049805 -9.43676758 9.04663086 C-9.00219238 8.4460083 -8.56761719 7.84538574 -8.11987305 7.2265625 C-7.64952637 6.5987085 -7.17917969 5.97085449 -6.69458008 5.32397461 C-6.09701904 4.42018066 -5.49945801 3.51638672 -4.88378906 2.58520508 C-2.69458008 0.32397461 -2.69458008 0.32397461 0 0 Z M-0.67114258 11.84350586 C-1.48711914 12.97852539 -1.48711914 12.97852539 -2.31958008 14.13647461 C-2.98602539 15.04655273 -3.6524707 15.95663086 -4.33911133 16.89428711 C-5.12765918 18.03517954 -5.91245712 19.17866813 -6.69458008 20.32397461 C-7.1720166 21.01587891 -7.64945313 21.7077832 -8.14135742 22.4206543 C-10.34006835 25.61067172 -12.52954818 28.80662515 -14.70263672 32.01416016 C-18.54729901 37.68729355 -22.512291 43.24696917 -26.59350586 48.75146484 C-30.61542037 54.18492368 -34.51223728 59.70172607 -38.39892578 65.23242188 C-42.43733093 70.97443547 -46.53944054 76.66565224 -50.69458008 82.32397461 C-47.20384037 85.89797966 -43.58361488 89.23452074 -39.75708008 92.44897461 C-39.19279297 92.92488037 -38.62850586 93.40078613 -38.04711914 93.89111328 C-33.51478175 97.68910202 -28.88441567 101.34984348 -24.21728516 104.97998047 C-18.63847429 109.33254397 -13.18531146 113.8313157 -7.73291016 118.34057617 C-3.30447656 122.00193911 1.15018222 125.62443643 5.64916992 129.19897461 C8.52640124 131.50075967 11.38407345 133.8255362 14.24047852 136.15307617 C23.71847189 145.55826663 23.71847189 145.55826663 34.30541992 151.32397461 C34.30541992 106.11397461 34.30541992 60.90397461 34.30541992 14.32397461 C28.16378885 13.09564839 22.29321556 11.96707653 16.11791992 11.19897461 C15.45856445 11.11260742 14.79920898 11.02624023 14.11987305 10.93725586 C6.34461096 9.50787442 6.34461096 9.50787442 -0.67114258 11.84350586 Z " fill="#28D8FD" transform="translate(259.694580078125,52.676025390625)"/>
<path d="M0 0 C1.43331294 0.94294297 2.86495504 1.88842598 4.29589844 2.83496094 C5.49203766 3.62432037 5.49203766 3.62432037 6.71234131 4.42962646 C9.75941861 6.5213063 12.46621506 8.81601003 15.25 11.25 C20.04697203 15.39104223 24.93905371 19.32655582 29.9855957 23.16137695 C34.18655739 26.35897416 38.32212825 29.63058053 42.4375 32.9375 C52.54745986 41.05728975 62.75140176 49.05598073 73 57 C71.72757348 59.66148909 70.34399338 62.07233827 68.63671875 64.4765625 C68.16886963 65.137771 67.70102051 65.79897949 67.21899414 66.48022461 C66.71360107 67.18800049 66.20820801 67.89577637 65.6875 68.625 C65.15697021 69.37209229 64.62644043 70.11918457 64.07983398 70.88891602 C57.54345683 80.07701411 50.92723987 89.20782327 44.30615234 98.33496094 C43.17626834 99.89272809 42.04751633 101.45131695 40.91992188 103.01074219 C39.81664339 104.53145995 38.70736148 106.04784231 37.59179688 107.55957031 C35.08986882 110.97280671 32.73623302 114.35513681 30.67578125 118.0546875 C28.74943963 121.43282219 26.92202833 124.36783688 24 127 C19.05921904 127.89360683 14.85806329 127.06217724 10 126 C8.23132643 125.8117919 6.46053055 125.64139 4.6875 125.5 C1 125 1 125 0 124 C-0.09600136 122.393108 -0.12187889 120.78198231 -0.12025452 119.17222595 C-0.12162918 118.12749619 -0.12300385 117.08276642 -0.12442017 116.00637817 C-0.12082489 114.85048187 -0.11722961 113.69458557 -0.11352539 112.50366211 C-0.11367142 111.29407333 -0.11381744 110.08448456 -0.1139679 108.83824158 C-0.11338893 105.51193649 -0.10835973 102.18569281 -0.10139394 98.8593986 C-0.09515978 95.38670071 -0.09455655 91.91400207 -0.09336853 88.44129944 C-0.0902554 81.86103807 -0.08204225 75.28079324 -0.07201904 68.70053917 C-0.06085734 61.21093888 -0.05534731 53.72133782 -0.05032361 46.2317313 C-0.03985962 30.82114461 -0.02226053 15.41057443 0 0 Z M8 18 C8 50.34 8 82.68 8 116 C17.11935535 119.04547246 17.11935535 119.04547246 20.73828125 116.1875 C21.48464844 115.135625 22.23101562 114.08375 23 113 C23.70842041 112.01386719 23.70842041 112.01386719 24.43115234 111.0078125 C26.06050466 108.69909268 27.62648138 106.35540106 29.1875 104 C33.73040417 97.24750212 38.4236853 90.74057022 43.4453125 84.3359375 C46.56552451 80.31217961 49.50172016 76.15927993 52.4375 72 C52.94611572 71.28118652 53.45473145 70.56237305 53.97875977 69.82177734 C56.46069341 66.2873439 58.84182447 62.74571481 61 59 C52.52149321 52.05611383 44.01246778 45.18278602 35.29296875 38.54296875 C32.89272456 36.70387754 30.52793586 34.82598321 28.17578125 32.92578125 C27.52230713 32.39799072 26.86883301 31.8702002 26.19555664 31.32641602 C24.94849999 30.31596993 23.70395632 29.30240976 22.46264648 28.28491211 C17.78528065 24.49538261 13.07336278 21.38224185 8 18 Z " fill="#28D8FD" transform="translate(64,105)"/>
</svg>
